<?xml version="1.0" encoding="UTF-8"?>
<svg width="916px" height="240px" viewBox="0 0 916 240" version="1.1" xmlns="http://www.w3.org/2000/svg" xmlns:xlink="http://www.w3.org/1999/xlink">
    <title>studytogehter-logo-white copy</title>
    <g id="studytogehter-logo-white-copy" stroke="none" stroke-width="1" fill="none" fill-rule="evenodd">
        <g id="Group-3-Copy" transform="translate(294.000000, 19.999998)" fill="#9656A1" fill-rule="nonzero">
            <path d="M110.60584,111.563183 C133.614727,111.555577 149.356504,127.637864 149.367383,155.398657 C149.367383,183.266063 133.647364,199.992381 110.638477,200.000003 C87.6404689,200.007612 71.8986915,183.292172 71.8877957,155.425854 C71.8769337,127.556272 87.6078322,111.570807 110.60584,111.563183 Z M202.956875,111.531634 C215.337071,111.527291 224.127227,116.806825 229.871289,122.593315 L219.710391,134.964807 C215.478496,131.070159 210.920235,128.180721 203.60961,128.182897 C190.47877,128.187248 181.155547,138.502627 181.155547,155.60318 C181.166426,173.135625 189.108028,183.321545 205.165293,183.316106 C208.58127,183.315018 212.116914,182.424036 214.194786,180.775881 L214.194786,166.048018 L200.063086,166.05237 L200.052207,150.312768 L231.318184,150.301889 L231.329063,189.625872 C225.443575,195.388428 215.086856,199.964096 203.185332,199.968456 C179.686895,199.976063 161.410332,184.988194 161.399439,156.255915 C161.388575,127.958791 180.187325,111.539258 202.956875,111.531634 Z M66.2525392,113.149336 L66.2634181,129.32083 L42.7867384,129.328446 L42.8084962,198.451928 L23.5201954,198.458456 L23.4984375,129.334973 L0.0217578125,129.343676 L0.0217578125,113.172182 L66.2525392,113.149336 Z M302.346563,113.068832 L302.357442,129.240327 L268.197676,129.252293 L268.197676,146.378956 L297.276993,146.369164 L297.287872,162.542834 L268.208555,162.552625 L268.208555,182.201018 L303.684669,182.189051 L303.684669,198.362721 L248.931133,198.381215 L248.909375,113.087327 L302.346563,113.068832 Z M381.065469,113.042723 L381.076348,129.213129 L357.599669,129.221832 L357.621426,198.344227 L338.333126,198.350754 L338.311368,129.22836 L314.834688,129.235975 L314.834688,113.064481 L381.065469,113.042723 Z M462.396173,113.014438 L462.417931,198.308327 L443.140509,198.314854 L443.12963,162.707106 L413.68043,162.716897 L413.691309,198.324645 L394.413887,198.33226 L394.381251,113.037284 L413.669552,113.030756 L413.68043,145.899196 L443.118751,145.889405 L443.107872,113.020965 L462.396173,113.014438 Z M536.02461,112.989416 L536.035489,129.160911 L501.875724,129.171789 L501.875724,146.299539 L530.95504,146.289748 L530.965919,162.463418 L501.886602,162.473209 L501.886602,182.121602 L537.362716,182.109635 L537.362716,198.283305 L482.609181,198.301799 L482.587423,113.006823 L536.02461,112.989416 Z M585.012325,112.971995 C603.103946,112.966571 617.942775,119.242612 617.942775,139.519805 C617.949736,152.064029 611.880171,160.03794 602.767345,164.155665 L622.076759,198.253932 L600.503888,198.261547 L584.207286,167.571054 L573.600353,167.575416 L573.611232,198.270251 L554.322931,198.276778 L554.301173,112.982889 L585.012325,112.971995 Z M110.616719,128.214443 C98.9762892,128.218797 91.6439064,138.317686 91.6439064,155.418239 C91.6547853,172.519879 98.9980471,183.352006 110.638477,183.348743 C122.268028,183.344391 129.611289,172.506825 129.600446,155.406272 C129.600446,138.304631 122.24627,128.211182 110.616719,128.214443 Z M583.445763,128.280798 L573.589474,128.284071 L573.600353,152.264444 L583.456642,152.26118 C593.606661,152.259004 599.046114,147.916145 599.046114,139.526332 C599.046114,131.091916 593.595782,128.277543 583.445763,128.280798 Z M31.1463086,1.80591793e-06 C41.3289649,-0.00325643618 50.4128517,4.4027006 56.4397657,10.6341381 L50.6521876,17.6564721 C45.386797,12.6902514 39.0879102,9.60608147 31.1571876,9.60934514 C21.5184766,9.61152093 15.1434375,14.4733042 15.1434375,22.1548999 C15.1434375,28.8475071 20.0470033,32.1503197 25.4793153,34.6721119 L26.0738183,34.9442437 C26.1731816,34.9891244 26.2726671,35.0337783 26.3722485,35.0782211 L26.9706775,35.3424693 L26.9706775,35.3424693 L27.5701461,35.6024026 C27.770002,35.6884115 27.9698208,35.7738267 28.1693921,35.8587736 L28.7671535,36.112335 C28.9660196,36.1964708 29.1644279,36.2802638 29.362168,36.3638394 L41.6118165,41.6564273 C51.5551368,45.9220464 59.3118207,51.8434351 59.3118207,64.6141832 C59.3226759,78.1823551 48.1065235,89.0253609 30.0475391,89.0318931 C17.993711,89.035152 7.51732423,84.12115 0,76.2948648 L6.53822267,68.7905953 C12.7283203,75.2026226 21.3117774,79.425814 30.2433594,79.4225504 C41.5139063,79.4192867 48.1935548,73.8025074 48.1935548,65.4583863 C48.1935548,56.6867242 41.9708204,53.8919331 33.8551563,50.3541128 L21.5184766,44.9157476 C13.5116016,41.5008589 4.12310548,35.4380444 4.12310548,22.8043706 C4.11222657,9.68658538 15.5459571,0.00544668884 31.1463086,1.80591793e-06 Z M204.969473,1.50999943 L204.980372,51.93373 C204.991231,79.4976148 191.686328,88.9764059 174.16041,88.9829402 C156.623614,88.9883727 143.286074,79.5193726 143.275196,51.9543999 L143.253438,1.53066935 L154.186739,1.52740568 L154.208496,52.2535699 C154.208496,72.890855 162.933379,79.376859 174.149532,79.3735953 C185.528868,79.3703316 194.514844,72.8778004 194.503965,52.2405152 L194.493086,1.5132631 L204.969473,1.50999943 Z M128.262305,1.5361088 L128.273184,10.7897065 L102.283477,10.7984096 L102.316113,87.4381285 L91.3828127,87.4413922 L91.3610549,10.8027612 L65.3713478,10.8114643 L65.3713478,1.55786661 L128.262305,1.5361088 Z M252.507715,1.49475492 C278.9217,1.48497794 293.086036,16.8307631 293.096933,44.1183237 C293.107793,71.4058843 278.943458,87.3782945 253.019024,87.3869977 L231.054512,87.3946129 L231.021875,1.5012963 L252.507715,1.49475492 Z M362.567032,1.45778068 L336.762266,54.0746988 L336.773145,87.3598004 L325.850723,87.3630641 L325.839844,54.0790503 L300.002442,1.47953849 L311.675508,1.47518693 L322.761114,25.7231811 C325.524356,32.0525288 328.113536,38.0228726 331.083477,44.4468667 L331.605665,44.4468667 C334.575606,38.0206968 337.534669,32.0481772 340.178243,25.7166538 L351.24209,1.46213224 L362.567032,1.45778068 Z M251.702676,10.4600647 L241.955176,10.4633393 L241.976934,78.4282183 L251.724434,78.4249547 C271.796016,78.4184273 281.815489,65.8337085 281.804636,44.1226753 C281.793731,22.4105542 271.774258,10.4524604 251.702676,10.4600647 Z" id="Combined-Shape"></path>
        </g>
        <path d="M154.285221,158.631818 L154.470494,158.80903 L186.343286,190.547282 C190.573611,187.789035 195.627687,186.185927 201.056073,186.185927 C215.934825,186.185927 228.001528,198.229469 228.001528,213.092226 C228.001528,227.954983 215.934825,239.998525 201.056073,239.998525 C186.177321,239.998525 174.110618,227.954983 174.110618,213.092226 C174.110618,208.15638 175.44142,203.531456 177.764063,199.555303 L145.692952,167.620014 C143.25962,165.196408 143.251934,161.25928 145.675786,158.826194 C148.039041,156.453935 151.841232,156.387323 154.285221,158.631818 Z M201.056073,198.623547 C193.040112,198.623547 186.546982,205.104214 186.546982,213.092226 C186.546982,221.080239 193.040112,227.560906 201.056073,227.560906 C209.072034,227.560906 215.565164,221.080239 215.565164,213.092226 C215.565164,205.104214 209.072034,198.623547 201.056073,198.623547 Z M66.5405029,160.042831 C68.9285557,162.390122 69.0206621,166.191781 66.7926065,168.650769 L66.616641,168.837227 L50.9129431,184.8466 C53.4595386,189.006309 54.9272727,193.896527 54.9272727,199.129646 C54.9272727,214.278037 42.6285721,226.553132 27.4636364,226.553132 C12.2987006,226.553132 0,214.278037 0,199.129646 C0,183.981254 12.2987006,171.706159 27.4636364,171.706159 C32.8815003,171.706159 37.9335279,173.27291 42.1896009,175.977692 L57.7469954,160.118977 C60.1542305,157.669444 64.0912179,157.635353 66.5405029,160.042831 Z M27.4636364,184.143779 C19.161491,184.143779 12.4363636,190.855999 12.4363636,199.129646 C12.4363636,207.403293 19.161491,214.115512 27.4636364,214.115512 C35.7657817,214.115512 42.4909091,207.403293 42.4909091,199.129646 C42.4909091,190.855999 35.7657817,184.143779 27.4636364,184.143779 Z M141.061914,176.651732 L150.090218,185.658891 C137.656833,193.854383 122.758911,198.625022 106.745455,198.625022 C90.999232,198.625022 76.331622,194.01228 64.0252115,186.066324 L73.0738044,177.036548 C82.9433071,182.851045 94.4536541,186.187402 106.745455,186.187402 C119.305924,186.187402 131.050405,182.703602 141.061914,176.651732 Z M40.5566552,77.3638973 L49.5966344,86.3857598 C43.7645981,96.2380392 40.4181818,107.729326 40.4181818,120 C40.4181818,132.26943 43.7639192,143.75963 49.5948598,153.611242 L40.554704,162.63309 C32.5998062,150.351419 27.9818182,135.714381 27.9818182,120 C27.9818182,104.284334 32.6005614,89.6461872 40.5566552,77.3638973 Z M135.763528,128.150028 L135.763636,147.855523 C135.763636,151.213753 133.102019,153.950267 129.773415,154.070231 L129.545455,154.074333 L83.9454545,154.074333 C80.5875633,154.074333 77.851326,151.412446 77.7313737,148.083506 L77.7272727,147.855523 L77.7265278,128.154028 L90.1625278,134.236028 L90.1632525,141.636392 L123.327119,141.636392 L123.326528,134.233028 L135.763528,128.150028 Z M204.163636,97.2311987 C216.752917,97.2311987 226.963636,107.42232 226.963636,120 C226.963636,132.57768 216.752917,142.768801 204.163636,142.768801 C193.732049,142.768801 184.933564,135.771655 182.224023,126.217507 L168.926488,126.218967 C165.492107,126.21914 162.708132,123.435166 162.708306,120.000785 C162.708475,116.652264 165.355262,113.921768 168.670789,113.787175 L168.927116,113.781975 L182.224592,113.780488 C184.934795,104.227366 193.732779,97.2311987 204.163636,97.2311987 Z M109.478972,81.0883212 L152.235844,101.999075 C153.305003,102.52196 154.157075,103.310922 154.751305,104.247153 C155.859522,105.327164 156.566127,106.817606 156.625776,108.472997 L156.629877,108.70098 L156.629877,133.525967 C156.629877,136.960521 153.845902,139.744777 150.411695,139.744777 C147.053804,139.744777 144.317566,137.082891 144.197614,133.753951 L144.193513,133.525967 L144.193101,117.104726 L109.476295,134.086416 C107.752373,134.929653 105.735774,134.929755 104.011937,134.086692 L61.2550651,113.175938 C58.170005,111.667152 56.8924343,107.942981 58.4015311,104.857769 C59.0091397,103.615568 60.0134283,102.611279 61.2556294,102.003671 L104.014614,81.0885972 C105.738536,80.2453603 107.755135,80.2452584 109.478972,81.0883212 Z M204.163636,109.668819 C198.437146,109.668819 193.8,114.297064 193.8,120 L193.800046,120.031042 C193.816836,125.719721 198.44754,130.331181 204.163636,130.331181 C209.890126,130.331181 214.527273,125.702936 214.527273,120 C214.527273,114.297064 209.890126,109.668819 204.163636,109.668819 Z M106.746067,93.5964417 L78.1406582,107.588665 L106.74536,121.577293 L135.350063,107.585776 L106.746067,93.5964417 Z M27.8270592,18.4746999 C40.4163397,18.4746999 50.6270592,28.6658211 50.6270592,41.2435011 C50.6270592,45.2105584 49.6112967,48.9402008 47.8255169,52.1875488 L72.9818683,75.8139639 C75.4397006,78.2127258 75.4873902,82.1495719 73.088386,84.6071559 C70.7493569,87.0033003 66.9480387,87.1085343 64.4813698,84.8889835 L64.2943056,84.7136628 L39.0905163,61.0443859 C35.7677083,62.9333824 31.9232912,64.0123024 27.8270592,64.0123024 C15.2377787,64.0123024 5.02705922,53.8211812 5.02705922,41.2435011 C5.02705922,28.6658211 15.2377787,18.4746999 27.8270592,18.4746999 Z M200.018182,7.10542736e-15 C214.896934,7.10542736e-15 226.963636,12.0435421 226.963636,26.9062991 C226.963636,41.7690561 214.896934,53.8125982 200.018182,53.8125982 C194.830317,53.8125982 189.984328,52.3484046 185.87252,49.8110394 L154.665198,80.9580796 C152.234393,83.3842191 148.29726,83.3802378 145.871365,80.9491871 C143.506118,78.5789126 143.450771,74.7765407 145.702497,72.3392133 L145.880257,72.1544662 L177.073956,41.0217924 C174.536854,36.9186139 173.072727,32.0834928 173.072727,26.9062991 C173.072727,12.0435421 185.13943,7.10542736e-15 200.018182,7.10542736e-15 Z M106.745455,41.3749782 C122.491335,41.3749782 137.158649,45.98752 149.464895,53.9331576 L140.417105,62.9634523 C130.547602,57.1489548 119.037255,53.8125982 106.745455,53.8125982 C94.4553137,53.8125982 82.9464152,57.148054 73.077802,62.9610974 L64.02822,53.9317334 C76.3340124,45.9869688 91.0005151,41.3749782 106.745455,41.3749782 Z M27.8270592,30.9123198 C22.1005691,30.9123198 17.4634229,35.5405656 17.4634229,41.2435011 C17.4634229,46.9464367 22.1005691,51.5746824 27.8270592,51.5746824 C33.5535493,51.5746824 38.1906956,46.9464367 38.1906956,41.2435011 C38.1906956,35.5405656 33.5535493,30.9123198 27.8270592,30.9123198 Z M200.018182,12.43762 C192.00222,12.43762 185.509091,18.9182866 185.509091,26.9062991 C185.509091,34.8943115 192.00222,41.3749782 200.018182,41.3749782 C208.034143,41.3749782 214.527273,34.8943115 214.527273,26.9062991 C214.527273,18.9182866 208.034143,12.43762 200.018182,12.43762 Z" id="Combined-Shape" fill="#FF6F61"></path>
    </g>
</svg>